<svg xmlns="http://www.w3.org/2000/svg" viewBox="0 0 99.91 100"><title>H</title><path d="M49.91,97.08" transform="translate(-0.04)" style="fill:#98cec9"/><path d="M99.36,25.88C98,18.54,95.88,0,74.64,0,51.3,0,54.33,23.17,50,23.49,45.67,23.17,48.7,0,25.36,0,4.12,0,2,18.54.64,25.88S-.53,49.62,9.34,63.49c3.15,4.43,7.82,11,15.83,14.92,12.37,5.5,19.82,13.9,21,16.77,1.24,3,.81,4.75,3.74,4.81h.18c2.93-.06,2.5-1.78,3.74-4.81,1.18-2.87,8.63-11.27,21-16.77,8-3.89,12.68-10.49,15.83-14.92C100.53,49.62,100.7,33.21,99.36,25.88Z" transform="translate(-0.04)" style="fill:#98cec9"/></svg>